<?xml version="1.0" encoding="UTF-8"?>
<svg width="60" height="60" viewBox="0 0 60 60" xmlns="http://www.w3.org/2000/svg">
  <defs>
    <!-- Brand gradient -->
    <linearGradient id="iconGradient" x1="0%" y1="0%" x2="100%" y2="100%">
      <stop offset="0%" style="stop-color:#dc2626;stop-opacity:1" />
      <stop offset="50%" style="stop-color:#ea580c;stop-opacity:1" />
      <stop offset="100%" style="stop-color:#f97316;stop-opacity:1" />
    </linearGradient>
    
    <!-- Background gradient -->
    <radialGradient id="bgGradient" cx="50%" cy="50%" r="50%">
      <stop offset="0%" style="stop-color:#ffffff;stop-opacity:1" />
      <stop offset="70%" style="stop-color:#f8fafc;stop-opacity:1" />
      <stop offset="100%" style="stop-color:#e2e8f0;stop-opacity:1" />
    </radialGradient>
  </defs>
  
  <!-- Background circle -->
  <circle cx="30" cy="30" r="28" fill="url(#bgGradient)" stroke="#e2e8f0" stroke-width="2"/>
  
  <!-- Main symbol -->
  <g transform="translate(30, 30)">
    <!-- Central body -->
    <ellipse cx="0" cy="0" rx="10" ry="8" fill="url(#iconGradient)"/>
    
    <!-- Wings (hawk element) -->
    <path d="M -10,-3 Q -20,-10 -25,-5 Q -22,3 -10,3 Z" fill="url(#iconGradient)" opacity="0.7"/>
    <path d="M 10,-3 Q 20,-10 25,-5 Q 22,3 10,3 Z" fill="url(#iconGradient)" opacity="0.7"/>
    
    <!-- Legs (tarantula element) -->
    <g stroke="url(#iconGradient)" stroke-width="2.5" fill="none" opacity="0.8" stroke-linecap="round">
      <!-- Left legs -->
      <path d="M -8,-5 Q -15,-10 -20,-7"/>
      <path d="M -8,-1 Q -16,-2 -21,1"/>
      <path d="M -8,3 Q -16,6 -21,9"/>
      <path d="M -8,7 Q -15,12 -20,9"/>
      
      <!-- Right legs -->
      <path d="M 8,-5 Q 15,-10 20,-7"/>
      <path d="M 8,-1 Q 16,-2 21,1"/>
      <path d="M 8,3 Q 16,6 21,9"/>
      <path d="M 8,7 Q 15,12 20,9"/>
    </g>
    
    <!-- Eyes -->
    <circle cx="-4" cy="-4" r="2" fill="#ffffff"/>
    <circle cx="4" cy="-4" r="2" fill="#ffffff"/>
    <circle cx="-4" cy="-4" r="1.2" fill="#1f2937"/>
    <circle cx="4" cy="-4" r="1.2" fill="#1f2937"/>
    
    <!-- Highlight dots -->
    <circle cx="-4.5" cy="-4.5" r="0.3" fill="#ffffff" opacity="0.8"/>
    <circle cx="3.5" cy="-4.5" r="0.3" fill="#ffffff" opacity="0.8"/>
  </g>
</svg>